<?xml version="1.0" encoding="utf-8"?>
<!-- Generator: Adobe Illustrator 22.0.1, SVG Export Plug-In . SVG Version: 6.00 Build 0)  -->
<svg version="1.1" id="tikv_1" xmlns="http://www.w3.org/2000/svg" xmlns:xlink="http://www.w3.org/1999/xlink" x="0px" y="0px"
	 viewBox="0 0 580.8 283.5" style="enable-background:new 0 0 580.8 283.5;" xml:space="preserve">
<style type="text/css">
	.st0{fill:#FFFFFF;}
	.st1{fill:#ED1A3B;}
	.st2{fill:#353558;}
</style>
<rect class="st0" width="580.8" height="283.5"/>
<g>
	<polygon class="st1" points="124,45.6 31.5,93.6 31.5,189.8 124,237.9 216.2,189.8 216.2,93.7 	"/>
	<g>
		<polygon class="st0" points="117.7,108.8 117.7,198.6 95,186.9 95,120.6 66.1,135.7 66.1,111.7 123.9,81.6 146.9,93.6 		"/>
		<polygon class="st0" points="163.8,181.1 141,193 141,120.7 163.8,108.8 		"/>
	</g>
</g>
<polygon class="st2" points="454.8,189.8 426.2,189.8 397.4,148.4 386.5,159.3 386.5,189.6 363.6,189.6 363.6,93.8 386.5,93.8 
	386.5,133.7 424.1,93.8 451.5,93.8 412.9,132.7 "/>
<polygon class="st2" points="492.1,189.8 460.4,93.8 485.5,93.8 504.5,161.7 506,161.7 523.8,93.8 549.3,93.8 516.9,189.8 "/>
<polygon class="st2" points="277.3,188.9 277.3,112.3 252.3,112.3 252.3,93.8 322.7,93.8 322.7,112.3 297.9,112.3 297.9,188.9 "/>
<g>
	<rect x="332.9" y="94" class="st2" width="20.1" height="18.4"/>
	<rect x="332.9" y="117.5" class="st2" width="20.1" height="71.6"/>
</g>
</svg>
