<svg xmlns="http://www.w3.org/2000/svg" viewBox="0 0 476.96 249.42"><defs><style>.cls-1{fill:#e30c34;}.cls-2{fill:#fff;}.cls-3{fill:#172d72;}</style></defs><title>Asset 26</title><g id="Layer_2" data-name="Layer 2"><g id="Layer_2-2" data-name="Layer 2"><polygon class="cls-1" points="0 62.35 0 187.06 108 249.41 216 187.06 216 62.35 108 0 0 62.35"/><polygon class="cls-2" points="107.94 41.63 36.21 83.04 36.21 124.45 72.08 103.73 72.08 187.11 107.94 207.78 107.94 207.78 107.94 83.03 143.79 62.33 107.94 41.63"/><polygon class="cls-2" points="144 103.95 144 187.06 180 166.28 180 83.14 144 103.95"/><path class="cls-3" d="M277.57,186.72H252V62.44h25.57V117l48.59-54.55h30.18L306.73,116l54.89,70.75H331.11l-40.75-54.89-12.79,13.29Z"/><path class="cls-3" d="M412.68,186.72,370.74,62.44h25.75L424.11,156l27.1-93.6H477L434.34,186.72Z"/></g></g></svg>